<?xml version="1.0" encoding="utf-8"?>
<!-- Generator: Adobe Illustrator 19.0.0, SVG Export Plug-In . SVG Version: 6.00 Build 0)  -->
<svg version="1.1" id="Layer_1" xmlns="http://www.w3.org/2000/svg" xmlns:xlink="http://www.w3.org/1999/xlink" x="0px" y="0px"
	 viewBox="0 0 200 50" style="enable-background:new 0 0 200 50;" xml:space="preserve">
<style type="text/css">
	.st0{fill:#9F9994;}
</style>
<g id="XMLID_46_">
	<path id="XMLID_74_" class="st0" d="M98.4,14.3v-1.4c-5.3,0-10.5,0.3-15.7,0.8l0.1,0.7l-1.4,0.2l-0.1-0.7
		c-5.3,0.6-10.4,1.4-15.5,2.4l0.1,0.7l-1.4,0.3l-0.1-0.7c-5.2,1.1-10.2,2.5-15.2,4.1l0.2,0.6L48,21.8l-0.2-0.6
		c-5,1.7-9.9,3.5-14.7,5.7l0.3,0.6L32.1,28l-0.3-0.6c-4.8,2.2-9.5,4.6-14,7.2l0.7,1.2C42.1,22.2,69.4,14.4,98.4,14.3z"/>
	<path id="XMLID_73_" class="st0" d="M179.8,35.8l0.7-1.2c-4.5-2.6-9.2-5-14-7.2l-0.3,0.6l-1.3-0.6l0.3-0.6c-4.8-2.1-9.7-4-14.7-5.7
		l-0.2,0.6l-1.4-0.4l0.2-0.6c-5-1.6-10-3-15.2-4.1l-0.1,0.7l-1.4-0.3l0.1-0.7c-5.1-1.1-10.3-1.9-15.5-2.4l-0.1,0.7l-1.4-0.2l0.1-0.7
		c-5.2-0.5-10.4-0.8-15.7-0.8v1.4C129,14.4,156.2,22.2,179.8,35.8z"/>
	<path id="XMLID_72_" class="st0" d="M81.8,4.9L80.4,5l0.9,8.9c0.5-0.1,1-0.1,1.4-0.2L81.8,4.9z"/>
	<path id="XMLID_71_" class="st0" d="M82.8,14.4l-0.1-0.7c-0.5,0-1,0.1-1.4,0.2l0.1,0.7L82.8,14.4z"/>
	<path id="XMLID_70_" class="st0" d="M63.9,7.6l-1.4,0.3l1.9,8.7c0.5-0.1,0.9-0.2,1.4-0.3L63.9,7.6z"/>
	<path id="XMLID_69_" class="st0" d="M65.9,17l-0.1-0.7c-0.5,0.1-0.9,0.2-1.4,0.3l0.1,0.7L65.9,17z"/>
	<path id="XMLID_68_" class="st0" d="M46.4,12.2L45,12.7l2.8,8.5c0.5-0.2,0.9-0.3,1.4-0.4L46.4,12.2z"/>
	<path id="XMLID_67_" class="st0" d="M49.4,21.4l-0.2-0.6c-0.5,0.1-0.9,0.3-1.4,0.4l0.2,0.6L49.4,21.4z"/>
	<path id="XMLID_66_" class="st0" d="M29.5,18.6l-1.3,0.6l3.6,8.2c0.4-0.2,0.9-0.4,1.3-0.6L29.5,18.6z"/>
	<path id="XMLID_65_" class="st0" d="M33.4,27.4l-0.3-0.6c-0.4,0.2-0.9,0.4-1.3,0.6l0.3,0.6L33.4,27.4z"/>
	<path id="XMLID_64_" class="st0" d="M195.7,45.2l0.4-0.5c-0.4-0.3-0.8-0.6-1.2-0.8l-0.4,0.5L195.7,45.2z"/>
	<path id="XMLID_63_" class="st0" d="M170.1,19.2l-1.3-0.6l-3.6,8.2c0.4,0.2,0.9,0.4,1.3,0.6L170.1,19.2z"/>
	<path id="XMLID_62_" class="st0" d="M166.2,28l0.3-0.6c-0.4-0.2-0.9-0.4-1.3-0.6l-0.3,0.6L166.2,28z"/>
	<path id="XMLID_61_" class="st0" d="M153.3,12.7l-1.4-0.4l-2.8,8.5c0.5,0.1,0.9,0.3,1.4,0.4L153.3,12.7z"/>
	<path id="XMLID_60_" class="st0" d="M150.3,21.8l0.2-0.6c-0.5-0.2-0.9-0.3-1.4-0.4l-0.2,0.6L150.3,21.8z"/>
	<path id="XMLID_59_" class="st0" d="M135.8,7.9l-1.4-0.3l-1.9,8.7c0.5,0.1,0.9,0.2,1.4,0.3L135.8,7.9z"/>
	<path id="XMLID_58_" class="st0" d="M133.8,17.3l0.1-0.7c-0.5-0.1-0.9-0.2-1.4-0.3l-0.1,0.7L133.8,17.3z"/>
	<path id="XMLID_57_" class="st0" d="M118,5l-1.4-0.2l-0.9,8.9c0.5,0,1,0.1,1.4,0.2L118,5z"/>
	<path id="XMLID_56_" class="st0" d="M116.9,14.6l0.1-0.7c-0.5-0.1-1-0.1-1.4-0.2l-0.1,0.7L116.9,14.6z"/>
	<path id="XMLID_55_" class="st0" d="M99.9,23.2v-8.9c-0.2,0-0.5,0-0.7,0c-0.2,0-0.5,0-0.7,0v8.9H99.9z"/>
	<path id="XMLID_54_" class="st0" d="M99.9,12.9V4h-1.4v8.9c0.2,0,0.5,0,0.7,0C99.4,12.9,99.6,12.9,99.9,12.9z"/>
	<path id="XMLID_53_" class="st0" d="M99.2,14.3c0.2,0,0.5,0,0.7,0v-1.4c-0.2,0-0.5,0-0.7,0c-0.2,0-0.5,0-0.7,0v1.4
		C98.7,14.3,98.9,14.3,99.2,14.3z"/>
	<path id="XMLID_52_" class="st0" d="M22.9,43.4l-4.4-7.6c-0.4,0.2-0.8,0.5-1.2,0.7l4.4,7.6L22.9,43.4z"/>
	<path id="XMLID_51_" class="st0" d="M13.3,26.8l-1.2,0.7l4.5,7.8c0.4-0.2,0.8-0.5,1.2-0.7L13.3,26.8z"/>
	<path id="XMLID_50_" class="st0" d="M18.5,35.8l-0.7-1.2c-0.4,0.2-0.8,0.5-1.2,0.7l0.7,1.2C17.7,36.2,18.1,36,18.5,35.8z"/>
	<path id="XMLID_49_" class="st0" d="M186.2,27.6l-1.2-0.7l-4.5,7.7c0.4,0.2,0.8,0.5,1.2,0.7L186.2,27.6z"/>
	<path id="XMLID_48_" class="st0" d="M176.6,44.2l4.4-7.7c-0.4-0.2-0.8-0.5-1.2-0.7l-4.4,7.7L176.6,44.2z"/>
	<path id="XMLID_47_" class="st0" d="M181.1,36.5l0.7-1.2c-0.4-0.2-0.8-0.5-1.2-0.7l-0.7,1.2C180.2,36,180.7,36.2,181.1,36.5z"/>
</g>
</svg>
