<?xml version="1.0" encoding="utf-8"?>
<!-- Generator: Adobe Illustrator 19.0.0, SVG Export Plug-In . SVG Version: 6.00 Build 0)  -->
<svg version="1.1" id="Layer_1" xmlns="http://www.w3.org/2000/svg" xmlns:xlink="http://www.w3.org/1999/xlink" x="0px" y="0px"
	 viewBox="0 0 200 50" style="enable-background:new 0 0 200 50;" xml:space="preserve">
<style type="text/css">
	.st0{fill:#9F9994;}
</style>
<g id="XMLID_21_">
	
		<rect id="XMLID_19_" x="79.4" y="11.1" transform="matrix(0.1045 0.9945 -0.9945 0.1045 86.8319 -72.813)" class="st0" width="8.9" height="1.3"/>
	
		<rect id="XMLID_18_" x="64.3" y="13.5" transform="matrix(0.2079 0.9781 -0.9781 0.2079 68.3168 -55.9471)" class="st0" width="8.9" height="1.3"/>
	
		<rect id="XMLID_17_" x="49.5" y="17.5" transform="matrix(0.309 0.9511 -0.9511 0.309 54.5263 -38.6938)" class="st0" width="8.9" height="1.3"/>
	
		<rect id="XMLID_16_" x="35.1" y="23" transform="matrix(0.4067 0.9135 -0.9135 0.4067 45.1057 -22.1109)" class="st0" width="8.9" height="1.3"/>
	
		<rect id="XMLID_15_" x="8.6" y="38.3" transform="matrix(0.5878 0.809 -0.809 0.5878 36.9224 5.5103)" class="st0" width="8.9" height="1.3"/>
	
		<rect id="XMLID_14_" x="184.6" y="34.5" transform="matrix(0.8089 0.5879 -0.5879 0.8089 58.3164 -101.4685)" class="st0" width="1.3" height="8.9"/>
	
		<rect id="XMLID_13_" x="158.1" y="19.2" transform="matrix(0.9136 0.4067 -0.4067 0.9136 23.3497 -62.5159)" class="st0" width="1.3" height="8.9"/>
	
		<rect id="XMLID_12_" x="143.8" y="13.7" transform="matrix(0.951 0.3091 -0.3091 0.951 12.694 -43.7584)" class="st0" width="1.3" height="8.9"/>
	
		<rect id="XMLID_11_" x="129" y="9.8" transform="matrix(0.9782 0.2077 -0.2077 0.9782 5.7779 -26.6119)" class="st0" width="1.3" height="8.9"/>
	
		<rect id="XMLID_10_" x="113.8" y="7.4" transform="matrix(0.9945 0.1046 -0.1046 0.9945 1.8638 -11.9113)" class="st0" width="1.3" height="8.9"/>
	<path id="XMLID_31_" class="st0" d="M97.2,14.3c0.4,0,0.7-0.1,1-0.2c0.3-0.2,0.5-0.4,0.7-0.7c0.2-0.3,0.2-0.6,0.2-1
		c0-0.4-0.1-0.7-0.2-0.9c-0.1-0.3-0.3-0.5-0.6-0.6c-0.3-0.2-0.6-0.2-0.9-0.2c-0.3,0-0.6,0.1-0.8,0.2c-0.2,0.1-0.4,0.3-0.5,0.6
		c0-0.7,0.1-1.2,0.3-1.5c0.2-0.4,0.5-0.5,1-0.5c0.5,0,0.9,0.2,1.4,0.6l0.3-0.7c-0.2-0.2-0.5-0.4-0.8-0.5c-0.3-0.1-0.6-0.2-1-0.2
		c-0.5,0-0.9,0.1-1.2,0.4c-0.3,0.2-0.6,0.6-0.8,1c-0.2,0.4-0.3,1-0.3,1.6c0,0.9,0.2,1.6,0.6,2C96,14,96.5,14.3,97.2,14.3z
		 M96.4,11.7c0.2-0.2,0.4-0.3,0.7-0.3c0.3,0,0.5,0.1,0.7,0.3c0.2,0.2,0.3,0.4,0.3,0.7c0,0.3-0.1,0.6-0.3,0.7
		c-0.2,0.2-0.4,0.3-0.7,0.3c-0.3,0-0.5-0.1-0.7-0.3c-0.2-0.2-0.3-0.4-0.3-0.7S96.3,11.9,96.4,11.7z"/>
	<path id="XMLID_28_" class="st0" d="M102,14.3c0.7,0,1.2-0.2,1.5-0.7c0.3-0.5,0.5-1.2,0.5-2.1c0-0.9-0.2-1.6-0.5-2.1
		c-0.3-0.5-0.9-0.7-1.5-0.7c-0.7,0-1.2,0.2-1.5,0.7c-0.3,0.5-0.5,1.2-0.5,2.1c0,0.9,0.2,1.6,0.5,2.1C100.8,14,101.3,14.3,102,14.3z
		 M101.2,9.9c0.2-0.3,0.4-0.5,0.8-0.5c0.4,0,0.6,0.2,0.8,0.5c0.2,0.3,0.3,0.8,0.3,1.6c0,0.7-0.1,1.2-0.3,1.6
		c-0.2,0.3-0.4,0.5-0.8,0.5c-0.4,0-0.6-0.2-0.8-0.5c-0.2-0.3-0.2-0.9-0.2-1.6C100.9,10.7,101,10.2,101.2,9.9z"/>
	<path id="XMLID_5_" class="st0" d="M24.2,32.4c0-0.2,0.1-0.4,0.3-0.6c0.1-0.2,0.3-0.3,0.5-0.4c0.3-0.2,0.5-0.2,0.8-0.1
		c0.3,0.1,0.5,0.2,0.6,0.5c0.2,0.3,0.2,0.5,0.1,0.8s-0.3,0.5-0.6,0.6c-0.5,0.3-1,0.4-1.6,0.3l0.1,0.8c0.3,0.1,0.6,0.1,1,0
		c0.4-0.1,0.7-0.2,1-0.4c0.4-0.2,0.6-0.5,0.8-0.7c0.2-0.3,0.3-0.6,0.3-0.9c0-0.3-0.1-0.6-0.3-1c-0.2-0.3-0.4-0.5-0.7-0.7
		c-0.3-0.2-0.5-0.2-0.9-0.2c-0.3,0-0.6,0.1-0.9,0.3c-0.3,0.2-0.6,0.4-0.7,0.8L23.3,30l2.2-1.3L25,28.1l-3,1.7l1.6,2.8L24.2,32.4z"/>
	<path id="XMLID_4_" class="st0" d="M28.5,29.9c0-0.2,0.1-0.4,0.3-0.6c0.1-0.2,0.3-0.3,0.5-0.4c0.3-0.2,0.5-0.2,0.8-0.1
		c0.3,0.1,0.5,0.2,0.6,0.5c0.2,0.3,0.2,0.5,0.1,0.8c-0.1,0.2-0.3,0.5-0.6,0.6c-0.5,0.3-1,0.4-1.6,0.3l0.1,0.8c0.3,0.1,0.6,0.1,1,0
		c0.4-0.1,0.7-0.2,1-0.4c0.4-0.2,0.6-0.5,0.8-0.7c0.2-0.3,0.3-0.6,0.3-0.9c0-0.3-0.1-0.6-0.3-1c-0.2-0.3-0.4-0.5-0.7-0.7
		c-0.3-0.2-0.5-0.2-0.8-0.2c-0.3,0-0.6,0.1-0.9,0.3c-0.3,0.2-0.6,0.4-0.7,0.8l-0.8-1.3l2.2-1.3l-0.4-0.7l-3,1.7l1.6,2.8L28.5,29.9z"
		/>
	<path id="XMLID_23_" class="st0" d="M169,31.8c0.6,0.3,1.1,0.4,1.7,0.1c0.6-0.3,1.1-0.8,1.5-1.6c0.5-0.8,0.7-1.5,0.6-2.1
		c-0.1-0.6-0.4-1.1-1-1.4c-0.6-0.3-1.1-0.4-1.7-0.1c-0.5,0.2-1,0.8-1.5,1.6c-0.5,0.8-0.7,1.5-0.6,2.1C168.1,31,168.5,31.4,169,31.8z
		 M169.6,28.8c0.4-0.6,0.7-1,1-1.2c0.3-0.2,0.6-0.2,0.9,0c0.3,0.2,0.5,0.5,0.4,0.8c0,0.4-0.2,0.9-0.6,1.5c-0.4,0.6-0.7,1-1,1.2
		c-0.3,0.2-0.6,0.2-0.9,0c-0.3-0.2-0.5-0.5-0.4-0.8C169,29.9,169.2,29.4,169.6,28.8z"/>
	<path id="XMLID_1_" class="st0" d="M174.2,31.6c0.2,0,0.4,0.1,0.6,0.2c0.3,0.2,0.5,0.4,0.5,0.6c0.1,0.3,0,0.5-0.1,0.8
		c-0.2,0.3-0.4,0.5-0.6,0.5c-0.3,0.1-0.5,0-0.8-0.2c-0.5-0.3-0.8-0.7-1.1-1.3l-0.7,0.5c0.1,0.3,0.3,0.6,0.5,0.8
		c0.2,0.3,0.5,0.5,0.8,0.7c0.4,0.2,0.7,0.3,1.1,0.3c0.3,0,0.7,0,0.9-0.2c0.3-0.2,0.5-0.4,0.7-0.7c0.2-0.3,0.3-0.6,0.3-0.9
		c0-0.3-0.1-0.6-0.2-0.9c-0.2-0.3-0.4-0.5-0.7-0.7c-0.3-0.2-0.7-0.3-1-0.3l0.8-1.3l2.2,1.3l0.4-0.7l-3-1.7l-1.6,2.8l0.5,0.3
		C173.8,31.6,174,31.6,174.2,31.6z"/>
</g>
</svg>
