<?xml version="1.0" encoding="utf-8"?>
<!-- Generator: Adobe Illustrator 19.0.0, SVG Export Plug-In . SVG Version: 6.00 Build 0)  -->
<svg version="1.1" id="Layer_1" xmlns="http://www.w3.org/2000/svg" xmlns:xlink="http://www.w3.org/1999/xlink" x="0px" y="0px"
	 viewBox="0 0 200 50" style="enable-background:new 0 0 200 50;" xml:space="preserve">
<style type="text/css">
	.st0{fill:#9F9994;}
</style>
<path id="XMLID_87_" class="st0" d="M98.4,9.5c-32.9,0-63.6,9.2-89.9,25.1l0,0.1L9,35.6l2.7,4.7l0.1,0.1l0.5,0.9
	c25.1-15.3,54.6-24.1,86-24.1c31.4,0,60.8,8.8,85.9,24l0.5-0.9l0.1-0.1l2.7-4.7l0.5-0.8l0-0.1C161.9,18.7,131.2,9.5,98.4,9.5z
	 M94.9,10.7v5.5c-4,0.1-8,0.3-12,0.7l-0.6-5.5C86.4,11,90.6,10.7,94.9,10.7z M17.8,36.8l-2.7-4.7c3.6-2,7.4-3.9,11.2-5.7l2.2,5
	C24.9,33.1,21.3,34.9,17.8,36.8z M32.1,29.8l-2.2-5c4.3-1.9,8.7-3.6,13.1-5.1l1.7,5.2C40.5,26.4,36.3,28,32.1,29.8z M48.6,23.6
	l-1.7-5.2c4.5-1.4,9-2.6,13.6-3.6l1.1,5.4C57.2,21.2,52.8,22.3,48.6,23.6z M65.5,19.3L64.4,14c4.6-0.9,9.2-1.6,13.9-2.2l0.6,5.5
	C74.4,17.8,69.9,18.5,65.5,19.3z M101.9,10.7c4.2,0.1,8.4,0.3,12.6,0.7l-0.6,5.5c-4-0.4-8-0.6-12-0.7V10.7z M118.4,11.8
	c4.7,0.5,9.3,1.3,13.9,2.2l-1.1,5.4c-4.4-0.9-8.8-1.6-13.3-2.1L118.4,11.8z M136.3,14.8c4.6,1,9.1,2.2,13.6,3.6l-1.7,5.2
	c-4.3-1.3-8.6-2.5-13.1-3.5L136.3,14.8z M153.7,19.7c4.5,1.5,8.8,3.2,13.1,5.1l-2.2,5c-4.1-1.8-8.3-3.4-12.6-4.8L153.7,19.7z
	 M170.5,26.4c3.8,1.8,7.5,3.6,11.2,5.7l-2.7,4.7c-3.5-1.9-7-3.7-10.7-5.4L170.5,26.4z"/>
</svg>
