<?xml version="1.0" encoding="utf-8"?>
<!-- Generator: Adobe Illustrator 19.0.0, SVG Export Plug-In . SVG Version: 6.00 Build 0)  -->
<svg version="1.1" id="Layer_1" xmlns="http://www.w3.org/2000/svg" xmlns:xlink="http://www.w3.org/1999/xlink" x="0px" y="0px"
	 viewBox="0 0 200 50" style="enable-background:new 0 0 200 50;" xml:space="preserve">
<style type="text/css">
	.st0{fill:#9E9894;}
</style>
<g id="XMLID_22_">
	
		<rect id="XMLID_45_" x="76.1" y="13" transform="matrix(0.1045 0.9945 -0.9945 0.1045 86.4567 -68.4925)" class="st0" width="10.4" height="1.6"/>
	
		<rect id="XMLID_44_" x="58.4" y="15.8" transform="matrix(0.2079 0.9781 -0.9781 0.2079 66.549 -49.0479)" class="st0" width="10.4" height="1.6"/>
	
		<rect id="XMLID_43_" x="41.1" y="20.4" transform="matrix(0.309 0.9511 -0.9511 0.309 52.1242 -29.3304)" class="st0" width="10.4" height="1.6"/>
	
		<rect id="XMLID_42_" x="24.3" y="26.9" transform="matrix(0.4067 0.9135 -0.9135 0.4067 42.7496 -10.5711)" class="st0" width="10.4" height="1.6"/>
	<path id="XMLID_39_" class="st0" d="M101,6.5h-3.8v12.6h3.8V6.5z M99.9,18h-1.6V7.6h1.6V18z"/>
	<rect id="XMLID_38_" x="98.4" y="7.6" class="st0" width="1.6" height="10.4"/>
	<path id="XMLID_35_" class="st0" d="M18.3,40.3L12,29.4l-3.2,1.9l6.3,10.9L18.3,40.3z M11.6,30.9l5.2,9l-1.3,0.8l-5.2-9L11.6,30.9z
		"/>
	
		<rect id="XMLID_34_" x="8.4" y="35" transform="matrix(0.5 0.866 -0.866 0.5 37.7461 6.1533)" class="st0" width="10.4" height="1.6"/>
	<path id="XMLID_30_" class="st0" d="M189.5,31.3l-3.3-1.9L180,40.3l3.2,1.9L189.5,31.3z M181.5,39.9l5.2-9l1.3,0.8l-5.2,9
		L181.5,39.9z"/>
	
		<rect id="XMLID_29_" x="179.6" y="35" transform="matrix(0.5 -0.866 0.866 0.5 61.4141 177.9047)" class="st0" width="10.4" height="1.6"/>
	
		<rect id="XMLID_27_" x="168" y="22.4" transform="matrix(0.9136 0.4067 -0.4067 0.9136 25.8283 -66.2662)" class="st0" width="1.6" height="10.4"/>
	
		<rect id="XMLID_26_" x="151.3" y="16" transform="matrix(0.9511 0.3088 -0.3088 0.9511 13.984 -45.9314)" class="st0" width="1.6" height="10.4"/>
	
		<rect id="XMLID_25_" x="134" y="11.4" transform="matrix(0.9781 0.208 -0.208 0.9781 6.3935 -27.6688)" class="st0" width="1.6" height="10.4"/>
	
		<rect id="XMLID_24_" x="116.3" y="8.6" transform="matrix(0.9945 0.1043 -0.1043 0.9945 2.0749 -12.1384)" class="st0" width="1.6" height="10.4"/>
</g>
</svg>
