<?xml version="1.0" encoding="utf-8"?>
<!-- Generator: Adobe Illustrator 19.0.0, SVG Export Plug-In . SVG Version: 6.00 Build 0)  -->
<svg version="1.1" id="Layer_1" xmlns="http://www.w3.org/2000/svg" xmlns:xlink="http://www.w3.org/1999/xlink" x="0px" y="0px"
	 viewBox="0 0 200 50" style="enable-background:new 0 0 200 50;" xml:space="preserve">
<style type="text/css">
	.st0{fill:#9F9994;}
</style>
<path class="st0" d="M99.9,8.8c-34.1,0-65.9,9.5-93.1,26l0,0.1l0.5,0.9l2.8,4.9l0.1,0.1l0.5,0.9c26-15.8,56.5-25,89.2-25
	c32.6,0,63.1,9.1,89.1,24.9l0.5-0.9l0.1-0.1l2.8-4.9l0.5-0.8l0-0.1C165.7,18.3,133.9,8.8,99.9,8.8z M96.3,10v5.7
	c-4.2,0.1-8.3,0.3-12.4,0.7l-0.6-5.7C87.5,10.3,91.9,10,96.3,10z M16.4,37.1l-2.8-4.9c3.8-2.1,7.6-4,11.6-5.9l2.3,5.2
	C23.7,33.2,20,35.1,16.4,37.1z M31.3,29.8L29,24.6c4.4-1.9,9-3.7,13.6-5.3l1.8,5.4C39.9,26.3,35.5,27.9,31.3,29.8z M48.3,23.4
	L46.5,18c4.6-1.4,9.3-2.7,14.1-3.8l1.2,5.6C57.2,20.9,52.7,22,48.3,23.4z M65.9,18.9l-1.2-5.6c4.7-0.9,9.5-1.7,14.4-2.3l0.6,5.7
	C75,17.3,70.4,18,65.9,18.9z M103.6,10c4.4,0.1,8.7,0.3,13,0.7l-0.6,5.7c-4.1-0.4-8.2-0.6-12.4-0.7V10z M120.7,11.1
	c4.9,0.6,9.7,1.3,14.4,2.3l-1.2,5.6c-4.5-0.9-9.2-1.6-13.8-2.2L120.7,11.1z M139.2,14.3c4.8,1.1,9.5,2.3,14.1,3.8l-1.8,5.4
	c-4.4-1.4-9-2.6-13.5-3.6L139.2,14.3z M157.2,19.3c4.6,1.6,9.2,3.3,13.6,5.3l-2.3,5.2c-4.3-1.8-8.6-3.5-13.1-5L157.2,19.3z
	 M174.7,26.3c3.9,1.8,7.8,3.8,11.6,5.9l-2.8,4.9c-3.6-2-7.3-3.8-11-5.6L174.7,26.3z"/>
</svg>
